<svg width="32" height="32" version="1.1" viewBox="0 0 32 32" xmlns="http://www.w3.org/2000/svg">
	<g>
		<g>
			<path id="play" d="m6 6 20 10-20 10z"/>
			<path id="pause" d="m20 4h6v24h-6zm-14 0h6v24h-6z"/>
			<path id="skip" d="m14 18c-2.21 0-4 1.79-4 4s1.79 4 4 4 4-1.79 4-4-1.79-4-4-4zm0-10c-6.63 0-12 5.37-12 12v4h4v-4c0-4.42 3.58-8 8-8 3.73 0 6.85 2.55 7.74 6h-3.74l6 6 6-6h-4.18c-0.954-5.67-5.88-10-11.8-10z"/>
			<path id="in" d="m8 6c3.73 0 6.85 2.55 7.74 6h-3.74l6 6 6-6h-4.18c-0.954-5.67-5.88-10-11.8-10zm10 12c-2.21 0-4 1.79-4 4s1.79 4 4 4 4-1.79 4-4-1.79-4-4-4z"/>
			<path id="out" d="m16 18c0-3.73 2.55-6.85 6-7.74v3.74l6-6-6-6v4.18c-5.67 0.954-10 5.88-10 11.8zm-2 0c-2.21 0-4 1.79-4 4s1.79 4 4 4 4-1.79 4-4-1.79-4-4-4z"/>
		</g>
	</g>
</svg>
