<svg width="36.6" height="32" version="1.1" viewBox="0 0 36.6 32" xmlns="http://www.w3.org/2000/svg">
	<g id="kame">
		<path d="m-3.01-5.22h6.02l3.01 5.22-3.01 5.22h-6.02l-3.01-5.22z" fill="none" style="fill:var(--fill)"/>
		<path d="m-9.24-16-2.44 4.23 2.4 4.16-4.4 7.62 4.4 7.62-2.4 4.16 2.44 4.23h4.88l2.4-4.15h3.92l2.4 4.15h4.88l2.44-4.23-2.4-4.15 1.92-3.32 1.16 2h7.28l3.64-6.3-3.64-6.31h-7.28l-1.16 2-1.92-3.32 2.4-4.15-2.44-4.23h-4.88l-2.4 4.15h-3.92l-2.4-4.15zm6.48 11.2h5.51l2.76 4.78-2.76 4.77h-5.51l-2.76-4.78z" fill="#666"/>
		<path d="m6.84 0.765h2.32l1.16 2.01-2.76 4.77h-2.32l-1.16-2.01zm-14.4-8.31-3.92 6.78h4.63l2.76-4.77-1.16-2.01zm-3.91 8.31 3.91 6.78h2.31l1.16-2.01-2.76-4.77zm16.7-8.31h2.32l2.76 4.77-1.16 2.01h-2.32l-2.76-4.77zm-8 13.8h5.51l1.16 2.01-1.16 2.01h-5.51l-1.16-2.01zm3.99e-4 -16.6h5.51l1.16 2.01-1.16 2.01h-5.51l-1.16-2.01z" fill="#ccc" style="fill:var(--stroke)"/>
		<path d="m-8.36 9.08h3.12l1.56 2.7-1.56 2.7h-3.12l-1.56-2.7zm13.6 0h3.12l1.56 2.7-1.56 2.7h-3.12l-1.56-2.7zm-13.6-23.5h3.12l1.56 2.7-1.56 2.7h-3.12l-1.56-2.7zm13.6 0h3.12l1.56 2.7-1.56 2.7h-3.12l-1.56-2.7zm8 9.7h5.51l2.76 4.78-2.76 4.77h-5.51l-2.76-4.77z" fill="#ccc"/>
	</g>
</svg>
