<svg height="256" width="512" xmlns="http://www.w3.org/2000/svg" xmlns:xlink="http://www.w3.org/1999/xlink" viewBox="0 0 2048 1024">
	<defs>
		<symbol id="logo_reverse" height="1024" width="1024" viewBox="0 0 1024 1024">
			<path transform="translate(0 1024) scale(1 -1)" d="M201.543,1006.374C201.543,1006.374,118.076,867.94,118.076,867.94C118.076,867.94,195.435,728.489,195.435,728.489C195.435,728.489,357.28,728.489,357.28,728.489C357.28,728.489,442.783,867.94,442.783,867.94C442.783,867.94,365.423,1006.374,365.423,1006.374C365.423,1006.374,201.543,1006.374,201.543,1006.374C201.543,1006.374,201.543,1006.374,201.543,1006.374M778.688,893.388C778.688,893.388,681.988,893.388,681.988,893.388C681.988,893.388,632.111,810.938,632.111,810.938C632.111,810.938,676.899,728.489,676.899,728.489C676.899,728.489,773.598,728.489,773.598,728.489C773.598,728.489,823.475,810.938,823.475,810.938C823.475,810.938,778.688,893.388,778.688,893.388M437.694,760.044C437.694,760.044,402.068,703.042,402.068,703.042C402.068,703.042,434.64,647.058,434.64,647.058C434.64,647.058,597.503,647.058,597.503,647.058C597.503,647.058,632.111,703.042,632.111,703.042C632.111,703.042,600.557,760.044,600.557,760.044C600.557,760.044,437.694,760.044,437.694,760.044C437.694,760.044,437.694,760.044,437.694,760.044M291.117,677.594C291.117,677.594,206.632,538.143,206.632,538.143C206.632,538.143,237.169,482.159,237.169,482.159C237.169,482.159,303.332,482.159,303.332,482.159C303.332,482.159,387.817,620.592,387.817,620.592C387.817,620.592,357.28,677.594,357.28,677.594C357.28,677.594,291.117,677.594,291.117,677.594C291.117,677.594,291.117,677.594,291.117,677.594M676.899,677.594C676.899,677.594,643.308,620.592,643.308,620.592C643.308,620.592,720.668,482.159,720.668,482.159C720.668,482.159,786.831,482.159,786.831,482.159C786.831,482.159,820.421,538.143,820.421,538.143C820.421,538.143,743.062,677.594,743.062,677.594C743.062,677.594,676.899,677.594,676.899,677.594C676.899,677.594,676.899,677.594,676.899,677.594M432.604,595.145C432.604,595.145,349.137,455.694,349.137,455.694C349.137,455.694,426.497,317.26,426.497,317.26C426.497,317.26,589.36,317.26,589.36,317.26C589.36,317.26,673.845,455.694,673.845,455.694C673.845,455.694,596.485,595.145,596.485,595.145C596.485,595.145,432.604,595.145,432.604,595.145C432.604,595.145,432.604,595.145,432.604,595.145M145.559,538.143C145.559,538.143,49.877,538.143,49.877,538.143C49.877,538.143,0,455.694,0,455.694C0,455.694,45.805,373.245,45.805,373.245C45.805,373.245,142.505,373.245,142.505,373.245C142.505,373.245,192.382,455.694,192.382,455.694C192.382,455.694,145.559,538.143,145.559,538.143M977.177,538.143C977.177,538.143,882.513,538.143,882.513,538.143C882.513,538.143,831.618,455.694,831.618,455.694C831.618,455.694,877.423,373.245,877.423,373.245C877.423,373.245,974.123,373.245,974.123,373.245C974.123,373.245,1024,455.694,1024,455.694C1024,455.694,977.177,538.143,977.177,538.143M237.169,430.247C237.169,430.247,201.543,373.245,201.543,373.245C201.543,373.245,279.92,234.811,279.92,234.811C279.92,234.811,346.083,234.811,346.083,234.811C346.083,234.811,381.71,290.795,381.71,290.795C381.71,290.795,303.332,430.247,303.332,430.247C303.332,430.247,237.169,430.247,237.169,430.247C237.169,430.247,237.169,430.247,237.169,430.247M718.632,430.247C718.632,430.247,635.165,290.795,635.165,290.795C635.165,290.795,698.274,177.809,698.274,177.809C698.274,177.809,817.368,373.245,817.368,373.245C817.368,373.245,784.795,430.247,784.795,430.247C784.795,430.247,718.632,430.247,718.632,430.247C718.632,430.247,718.632,430.247,718.632,430.247M426.497,265.348C426.497,265.348,390.871,207.328,390.871,207.328C390.871,207.328,423.443,152.362,423.443,152.362C423.443,152.362,652.469,152.362,652.469,152.362C652.469,152.362,589.36,265.348,589.36,265.348C589.36,265.348,426.497,265.348,426.497,265.348C426.497,265.348,426.497,265.348,426.497,265.348M346.083,182.899C346.083,182.899,248.366,182.899,248.366,182.899C248.366,182.899,198.489,99.431,198.489,99.431C198.489,99.431,245.312,18,245.312,18C245.312,18,340.994,18,340.994,18C340.994,18,390.871,100.449,390.871,100.449C390.871,100.449,346.083,182.899,346.083,182.899"/>
		</symbol>
		<symbol id="logo" viewBox="0 0 1024 1024">
			<path transform="translate(0 1024) scale(1 -1)" d="M1000.276,815.185C1000.276,815.185,829.951,918.817,829.951,918.817C829.951,918.817,658.6,822.368,658.6,822.368C658.6,822.368,658.6,764.909,658.6,764.909C658.6,764.909,580.62,811.081,580.62,811.081C580.62,811.081,580.62,950.624,580.62,950.624C580.62,950.624,462.624,1024.5,462.624,1024.5C462.624,1024.5,341.55,956.781,341.55,956.781C341.55,956.781,341.55,817.237,341.55,817.237C341.55,817.237,263.57,773.117,263.57,773.117C263.57,773.117,143.522,845.967,143.522,845.967C143.522,845.967,24.5,778.247,24.5,778.247C24.5,778.247,24.5,637.678,24.5,637.678C24.5,637.678,143.522,564.829,143.522,564.829C143.522,564.829,143.522,333.967,143.522,333.967C143.522,333.967,341.55,213.919,341.55,213.919C341.55,213.919,341.55,74.376,341.55,74.376C341.55,74.376,460.572,0.5,460.572,0.5C460.572,0.5,581.646,68.219,581.646,68.219C581.646,68.219,581.646,209.815,581.646,209.815C581.646,209.815,659.626,252.909,659.626,252.909C659.626,252.909,777.622,180.059,777.622,180.059C777.622,180.059,898.696,247.779,898.696,247.779C898.696,247.779,898.696,387.322,898.696,387.322C898.696,387.322,779.674,461.197,779.674,461.197C779.674,461.197,779.674,550.464,779.674,550.464C779.674,550.464,829.951,519.682,829.951,519.682C829.951,519.682,1000.276,616.131,1000.276,616.131C1000.276,616.131,1000.276,815.185,1000.276,815.185C1000.276,815.185,1000.276,815.185,1000.276,815.185"/>
			<path fill="green" transform="translate(0 1024) scale(1 -1)" d="M954.103,789.534C954.103,789.534,954.103,643.835,954.103,643.835C954.103,643.835,829.951,575.089,829.951,575.089C829.951,575.089,705.799,651.017,705.799,651.017C705.799,651.017,705.799,795.69,705.799,795.69C705.799,795.69,829.951,864.436,829.951,864.436C829.951,864.436,954.103,789.534,954.103,789.534M853.55,274.456C853.55,274.456,779.674,234.44,779.674,234.44C779.674,234.44,705.799,279.586,705.799,279.586C705.799,279.586,705.799,365.775,705.799,365.775C705.799,365.775,779.674,405.791,779.674,405.791C779.674,405.791,853.55,361.67,853.55,361.67C853.55,361.67,853.55,274.456,853.55,274.456C853.55,274.456,853.55,274.456,853.55,274.456M733.502,579.193C733.502,579.193,733.502,433.494,733.502,433.494C733.502,433.494,683.225,405.791,683.225,405.791C683.225,405.791,632.949,436.572,632.949,436.572C632.949,436.572,632.949,582.272,632.949,582.272C632.949,582.272,683.225,611.001,683.225,611.001C683.225,611.001,733.502,579.193,733.502,579.193M659.626,710.528C659.626,710.528,659.626,651.017,659.626,651.017C659.626,651.017,609.35,623.314,609.35,623.314C609.35,623.314,485.197,698.215,485.197,698.215C485.197,698.215,485.197,757.726,485.197,757.726C485.197,757.726,535.474,785.43,535.474,785.43C535.474,785.43,659.626,710.528,659.626,710.528M659.626,365.775C659.626,365.775,659.626,306.264,659.626,306.264C659.626,306.264,535.474,237.518,535.474,237.518C535.474,237.518,485.197,267.274,485.197,267.274C485.197,267.274,485.197,326.785,485.197,326.785C485.197,326.785,609.35,395.53,609.35,395.53C609.35,395.53,659.626,365.775,659.626,365.775M586.777,583.298C586.777,583.298,586.777,437.598,586.777,437.598C586.777,437.598,462.624,368.853,462.624,368.853C462.624,368.853,338.472,443.755,338.472,443.755C338.472,443.755,338.472,589.454,338.472,589.454C338.472,589.454,462.624,658.199,462.624,658.199C462.624,658.199,586.777,583.298,586.777,583.298M535.474,839.811C535.474,839.811,462.624,797.742,462.624,797.742C462.624,797.742,388.748,842.889,388.748,842.889C388.748,842.889,388.748,929.077,388.748,929.077C388.748,929.077,462.624,970.119,462.624,970.119C462.624,970.119,535.474,924.973,535.474,924.973C535.474,924.973,535.474,839.811,535.474,839.811C535.474,839.811,535.474,839.811,535.474,839.811M535.474,97.975C535.474,97.975,462.624,55.907,462.624,55.907C462.624,55.907,388.748,100.027,388.748,100.027C388.748,100.027,388.748,187.241,388.748,187.241C388.748,187.241,462.624,227.258,462.624,227.258C462.624,227.258,535.474,182.111,535.474,182.111C535.474,182.111,535.474,97.975,535.474,97.975C535.474,97.975,535.474,97.975,535.474,97.975M439.025,757.726C439.025,757.726,439.025,698.215,439.025,698.215C439.025,698.215,314.873,629.47,314.873,629.47C314.873,629.47,264.596,661.278,264.596,661.278C264.596,661.278,264.596,719.763,264.596,719.763C264.596,719.763,388.748,789.534,388.748,789.534C388.748,789.534,439.025,757.726,439.025,757.726M439.025,327.811C439.025,327.811,439.025,269.326,439.025,269.326C439.025,269.326,388.748,240.596,388.748,240.596C388.748,240.596,214.32,347.306,214.32,347.306C214.32,347.306,314.873,402.712,314.873,402.712C314.873,402.712,439.025,327.811,439.025,327.811M292.3,589.454C292.3,589.454,292.3,443.755,292.3,443.755C292.3,443.755,191.746,387.322,191.746,387.322C191.746,387.322,191.746,591.506,191.746,591.506C191.746,591.506,239.971,621.262,239.971,621.262C239.971,621.262,292.3,589.454,292.3,589.454M218.424,661.278C218.424,661.278,145.574,621.262,145.574,621.262C145.574,621.262,71.698,665.382,71.698,665.382C71.698,665.382,71.698,750.544,71.698,750.544C71.698,750.544,143.522,792.612,143.522,792.612C143.522,792.612,218.424,747.466,218.424,747.466C218.424,747.466,218.424,661.278,218.424,661.278C218.424,661.278,218.424,661.278,218.424,661.278"/>
		</symbol>
	</defs>
	<use height="1024" width="1024" xlink:href="#logo"/>
	<use height="1024" width="1024" x="1024" xlink:href="#logo_reverse"/>
</svg>
