<svg width="64" height="64" version="1.1" viewBox="0 0 64 64" xmlns="http://www.w3.org/2000/svg">
    <path d="m21.024 0 2.9642 2.1671c-0.85074 1.1407-1.7413 2.2513-2.6538 3.3441h16.872l0.96226-0.95277 2.6055 2.5798-7.4705 7.3968h15.933v18.497h-18.538v3.7761h22.681v18.497h-22.681c0 2.8086 2.2599 5.0465 5.0965 5.0465h18.424c2.8366 0 5.0968-2.2379 5.0968-5.0465v-3.6484h3.6847v3.6484c0 4.7804-3.9536 8.6949-8.7815 8.6949h-18.424c-4.828 0-8.7812-3.9145-8.7812-8.6949h-18.997v3.2006h-3.6847v-21.698h22.681v-3.7761h-18.539v-16.054c-2.4138 1.8873-4.9254 3.6515-7.5464 5.2457l-1.9287-3.1086c4.0857-2.4852 7.93-5.3613 11.461-8.5738 3.5177-3.2006 6.7254-6.7365 9.5633-10.542zm-2.9504 9.1596c-1.3274 1.4011-2.6911 2.7685-4.1198 4.0685-0.49189 0.44756-1.0045 0.87205-1.5077 1.307h16.647l5.429-5.3755zm-4.9139 9.0239v3.7758h14.854v-3.7758zm18.539 0v3.7758h14.854v-3.7758zm-18.539 7.4241v3.7761h14.854v-3.7761zm18.539 0v3.7761h14.854v-3.7761zm-22.681 14.849v3.7758h18.997v-3.7758zm22.681 0v3.7758h18.996v-3.7758zm-22.681 7.4241v3.7761h18.997v-3.7761zm22.681 0v3.7761h18.996v-3.7761z" fill="#000080" fill-rule="evenodd" stop-color="#000000" stroke-width="24"/>
</svg>
