<?xml version="1.0" encoding="UTF-8" standalone="no"?>
<svg
   width="128"
   height="150"
   version="1.1"
   viewBox="0 0 64 75"
   id="svg18"
   sodipodi:docname="logo_kame_simple.svg"
   xmlns:inkscape="http://www.inkscape.org/namespaces/inkscape"
   xmlns:sodipodi="http://sodipodi.sourceforge.net/DTD/sodipodi-0.dtd"
   xmlns="http://www.w3.org/2000/svg"
   xmlns:svg="http://www.w3.org/2000/svg">
  <defs
     id="defs22" />
  <sodipodi:namedview
     id="namedview20"
     pagecolor="#ffffff"
     bordercolor="#999999"
     borderopacity="1"
     inkscape:showpageshadow="0"
     inkscape:pageopacity="0"
     inkscape:pagecheckerboard="0"
     inkscape:deskcolor="#d1d1d1"
     showgrid="false" />
  <g
     fill-rule="evenodd"
     id="g16"
     transform="rotate(30,31.99995,37.5)">
    <path
       d="m 57.6,22.5 -6.3999,3.7499 V 33.75 L 57.6,37.5 63.9999,33.75 v -7.5001 z"
       fill="#008000"
       id="path2" />
    <path
       d="m 57.6,52.5 -6.3999,3.7499 V 63.75 L 57.6,67.5 63.9999,63.75 v -7.5001 z"
       fill="#008000"
       id="path4" />
    <path
       d="M 6.4,52.5 0,56.25 v 7.5001 L 6.4,67.5 12.7999,63.7501 V 56.25 Z"
       fill="#008000"
       id="path6" />
    <path
       d="M 6.4001,22.5 3e-4,26.25 v 7.5001 l 6.3998,3.7499 6.4,-3.7499 V 26.25 Z"
       fill="#008000"
       id="path8" />
    <path
       d="m 32,28.579 14.012,8.2105 v 16.421 L 32,61.421 17.987,53.2105 v -16.421 l 7.0063,-4.1053 z"
       fill="#7fbf00"
       opacity="0.5"
       id="path10" />
    <path
       d="m 32,30 12.799,7.4986 v 15 L 32,59.9999 19.201,52.4986 v -15 z M 32,15 6.399,29.997 V 60 L 32,75 57.598,60 V 29.997 Z"
       fill="#7fbf00"
       id="path12" />
    <path
       d="m 32,0 12.8,7.5001 v 15 L 32,30.0002 19.2,22.5001 v -15 z"
       fill="#008000"
       id="path14" />
  </g>
</svg>
