<svg width="128" height="150" version="1.1" viewBox="0 0 64 75" xmlns="http://www.w3.org/2000/svg">
    <g fill-rule="evenodd">
        <path d="m57.6 22.5-6.3999 3.7499v7.5001l6.3999 3.75 6.3999-3.75v-7.5001z" fill="#008000"/>
        <path d="m57.6 52.5-6.3999 3.7499v7.5001l6.3999 3.75 6.3999-3.75v-7.5001z" fill="#008000"/>
        <path d="m6.4 52.5-6.4 3.75v7.5001l6.4 3.7499 6.3999-3.7499v-7.5001z" fill="#008000"/>
        <path d="m6.4001 22.5-6.3998 3.75v7.5001l6.3998 3.7499 6.4-3.7499v-7.5001z" fill="#008000"/>
        <path d="m32 28.579 14.012 8.2105v16.421l-14.012 8.2105-14.013-8.2105v-16.421l7.0063-4.1053z" fill="#7fbf00" opacity=".5"/>
        <path d="m32 30 12.799 7.4986v15l-12.799 7.5013-12.799-7.5013v-15zm0-15-25.601 14.997v30.003l25.601 15 25.598-15v-30.003z" fill="#7fbf00"/>
        <path d="m32 0 12.8 7.5001v15l-12.8 7.5001-12.8-7.5001v-15z" fill="#008000"/>
    </g>
</svg>
