<svg width="52" height="64" version="1.1" viewBox="0 0 52 64" xmlns="http://www.w3.org/2000/svg">
    <g fill-rule="evenodd">
        <path d="m80.092 73.899-4.5216 2.6392v5.2784l4.5216 2.6391 4.5217-2.6391v-5.2784zm-9.9e-5 21.114-4.5217 2.6392v5.2784l4.5217 2.6391 4.5217-2.6391v-5.2784zm36.174 0-4.5217 2.6391v5.2784l4.5217 2.6392 4.5217-2.6392v-5.2784zm-3.9e-4 -21.114-4.5217 2.6391v5.2784l4.5217 2.6392 4.5217-2.6392v-5.2784z" fill="#008000" stop-color="#000000"/>
        <path d="m98.179 78.177 9.9001 5.7784v11.557l-9.9001 5.7784-9.9002-5.7784v-11.557l4.9502-2.8892z" fill="#7fbf00" opacity=".5" stop-color="#000000" style="-inkscape-stroke:none;font-variation-settings:normal"/>
        <path d="m20.348 20.454-9.0434 5.2784v5.2783l4.5217 2.6392 9.0433-5.2784v-5.2783zm11.304 0-4.5217 2.6392v5.2783l9.0436 5.2784 4.5215-2.6392h1.98e-4v-5.2783h-1.98e-4zm-21.478 12.536-4.5219 2.6391v10.557l4.5219 2.6392 4.5216-2.6392v-10.557zm31.652 0-4.5217 2.6391v10.557l4.5217 2.6392 4.5219-2.6392v-10.557zm-26 15.175-4.5217 2.6392v5.2783l13.565 7.9175v-10.557zm20.348 0-9.0434 5.2783v10.557l13.565-7.9175v-5.2783z" fill="#7fbf00" stop-color="#000000" style="-inkscape-stroke:none;font-variation-settings:normal"/>
        <path d="m26 30.35 9.0434 5.2784v10.557l-9.0434 5.2784-9.0435-5.2784v-10.557l4.5218-2.6392z" fill="#7fbf00" opacity=".5" stop-color="#000000" style="-inkscape-stroke:none;font-variation-settings:normal"/>
        <path d="m4.5216 23.093-4.5216 2.6392v5.2784l4.5216 2.6391 4.5217-2.6391v-5.2784zm21.478-23.093 9.0435 5.2784v10.557l-9.0435 5.2784-9.0434-5.2784v-10.557zm-21.478 48.165-4.5217 2.6392v5.2784l4.5217 2.6391 4.5217-2.6391v-5.2784zm42.957 1e-4 -4.5217 2.6391v5.2784l4.5217 2.6392 4.5217-2.6392v-5.2784zm0-25.072-4.5217 2.6391v5.2784l4.5217 2.6392 4.5217-2.6392v-5.2784z" fill="#008000" stop-color="#000000"/>
        <path d="m107.73 29.748-9.0434 5.2783v10.557l13.565-7.9175v-5.2783z" fill="#7fbf00" stop-color="#000000" style="-inkscape-stroke:none;font-variation-settings:normal"/>
        <path d="m89.642 29.748-4.5217 2.6392v5.2783l13.565 7.9175v-10.557z" fill="#7fbf00" stop-color="#000000" style="-inkscape-stroke:none;font-variation-settings:normal"/>
        <path d="m112.25 16.552-4.5217 2.6391v10.557l4.5217 2.6392 4.5219-2.6392v-10.557z" fill="#7fbf00" stop-color="#000000" style="-inkscape-stroke:none;font-variation-settings:normal"/>
        <path d="m85.12 16.552-4.5219 2.6391v10.557l4.5219 2.6392 4.5216-2.6392v-10.557z" fill="#7fbf00" stop-color="#000000" style="-inkscape-stroke:none;font-variation-settings:normal"/>
        <path d="m103.21 5.9948-4.5217 2.6392v5.2783l9.0436 5.2784 4.5215-2.6392h2e-4v-5.2783h-2e-4z" fill="#7fbf00" stop-color="#000000" style="-inkscape-stroke:none;font-variation-settings:normal"/>
        <path d="m94.163 5.9948-9.0434 5.2784v5.2783l4.5217 2.6392 9.0433-5.2784v-5.2783z" fill="#7fbf00" stop-color="#000000" style="-inkscape-stroke:none;font-variation-settings:normal"/>
        <path d="m98.685 13.912 9.0434 5.2784v10.557l-9.0434 5.2784-9.0435-5.2784v-10.557l4.5218-2.6392z" fill="#7fbf00" opacity=".5" stop-color="#000000" style="-inkscape-stroke:none;font-variation-settings:normal"/>
        <path d="m116.77 8.6341-4.5217 2.6391v5.2784l4.5217 2.6392 4.5217-2.6392v-5.2784z" fill="#008000" stop-color="#000000"/>
        <path d="m116.77 29.748-4.5217 2.6391v5.2784l4.5217 2.6392 4.5217-2.6392v-5.2784z" fill="#008000" stop-color="#000000"/>
        <path d="m80.598 29.748-4.5217 2.6392v5.2784l4.5217 2.6391 4.5217-2.6391v-5.2784z" fill="#008000" stop-color="#000000"/>
        <path d="m98.685-12.48 9.0435 5.2784v10.557l-9.0435 5.2784-9.0434-5.2784v-10.557z" fill="#008000" stop-color="#000000"/>
        <path d="m80.598 8.634-4.5216 2.6392v5.2784l4.5216 2.6391 4.5217-2.6391v-5.2784z" fill="#008000" stop-color="#000000"/>
        <path d="m98.18 79.178 9.043 5.2773v10.557l-9.043 5.2793-9.043-5.2793v-10.557zm0-10.557-18.088 10.555v21.115l18.088 10.557 18.086-10.557v-21.115z" fill="#7fbf00" stop-color="#000000" style="-inkscape-stroke:none;font-variation-settings:normal"/>
        <path d="m98.18 58.064 9.0435 5.2784v10.557l-9.0435 5.2784-9.0434-5.2784v-10.557z" fill="#008000" stop-color="#000000"/>
    </g>
</svg>
