<svg width="128" height="128" version="1.1" viewBox="0 0 128 128" xmlns="http://www.w3.org/2000/svg">
    <g>
        <path d="m32.001 102.8v22.17l19.2-11.085-6.3999-11.085zm12.799-88.681-12.801-4.06e-4 -6.3999 11.085 6.3998 11.085 19.2-11.085zm-38.4 66.51-6.4006-11.085 6.3999-11.085 12.8-4.1e-5 9.23e-4 22.17zm115.2-22.17 6.4006 11.085-6.3999 11.085-12.8 4.1e-5 -9.2e-4 -22.17zm-38.4 66.51 12.801 4e-4 6.3999-11.085-6.3998-11.085-19.2 11.085z" fill="#008000" fill-rule="evenodd" stop-color="#000000"/>
        <path d="m38.401 25.202-25.6 44.34 25.6 44.341 51.2-9.2e-4 25.6-44.34-12.801-22.171-38.4-22.17zm12.799 22.17h25.601l12.8 22.17-12.801 22.171h-25.599l-12.801-22.17z" fill="#7fbf00" fill-rule="evenodd" stop-color="#000000"/>
        <path d="m102.4 3.0318 12.8 22.17-12.8 22.17-25.6-5e-6 -12.8-22.17 12.8-22.17z" fill="#008000" fill-rule="evenodd" stop-color="#000000"/>
        <circle cx="64" cy="69.544" r="6" opacity="0"/>
    </g>
</svg>
