<svg width="320" height="92" version="1.1" viewBox="0 0 320 92" xmlns="http://www.w3.org/2000/svg">
    <g fill="currentColor">
        <path d="m0 0v91.336h9.329v-41.003h22.671c12.576-2e-5 22.671 10.095 22.671 22.671v18.332h9.329v-18.332c2.4e-5 -11.57-6.2231-21.714-15.472-27.336 9.2485-5.622 15.472-15.766 15.472-27.336v-18.332h-9.329v18.332c2.4e-5 12.576-10.095 22.671-22.671 22.671h-22.671v-41.003z"/>
        <path d="m73.329 27.336v9.329h32c10.975-1.7e-5 20.052 7.6911 22.188 18.007h-22.188c-17.618-3e-5 -32 14.382-32 32v4.6645h64v-32c3e-5 -17.618-14.382-32-32-32zm32 36.664h22.671v18.007h-44.858c2.1358-10.315 11.212-18.007 22.187-18.007z"/>
        <path d="m256 27.336v32c-3e-5 17.618 14.382 32 32 32h32v-9.329h-32c-10.975 2e-5 -20.052-7.6911-22.188-18.007h54.188v-4.6645c2e-5 -17.618-14.382-32-32-32zm9.329 9.329h22.671c10.975-1.7e-5 20.051 7.6911 22.187 18.007h-44.858z"/>
        <path d="m146.66 27.336v64h9.329v-54.671h13.342c12.576 0 22.671 10.095 22.671 22.671v32h9.329v-54.671h13.342c12.576 0 22.671 10.095 22.671 22.671v32h9.329v-32c0-17.618-14.382-32-32-32h-22.671v9.4633c-5.8031-5.8373-13.828-9.4633-22.671-9.4633z"/>
    </g>
</svg>
